<svg width="21" height="21" viewBox="0 0 21 21" fill="none" xmlns="http://www.w3.org/2000/svg">
<path d="M20.094 1.77673L19.2241 0.906809C18.7189 0.40161 17.8998 0.40161 17.3946 0.906809L1.22546 17.0758C0.720257 17.581 0.720257 18.4001 1.22546 18.9053L2.09539 19.7752C2.60059 20.2804 3.41968 20.2804 3.92489 19.7752L20.094 3.60622C20.5992 3.10102 20.5992 2.28193 20.094 1.77673Z" fill="#C8C8C8"/>
<path d="M19.2231 19.775L20.0931 18.905C20.5983 18.3998 20.5983 17.5808 20.0931 17.0756L3.92395 0.906548C3.41874 0.401349 2.59965 0.401349 2.09445 0.906548L1.22452 1.77647C0.719316 2.28167 0.719316 3.10076 1.22452 3.60596L17.3936 19.775C17.8988 20.2802 18.7179 20.2802 19.2231 19.775Z" fill="#C8C8C8"/>
</svg>
