<svg width="37" height="41" viewBox="0 0 37 41" fill="none" xmlns="http://www.w3.org/2000/svg">
<path d="M26.9305 34.9884C26.2958 34.6516 25.5539 34.5782 24.8655 34.7841C24.1771 34.99 23.5975 35.4586 23.2525 36.0884L23.2339 36.1163C23.066 36.4279 22.9617 36.7697 22.9269 37.1218C22.8921 37.474 22.9276 37.8295 23.0312 38.1679C23.1349 38.5063 23.3046 38.8208 23.5307 39.0931C23.7568 39.3655 24.0347 39.5904 24.3483 39.7548C24.9819 40.0925 25.7232 40.1672 26.4116 39.9625C27.0999 39.7579 27.6797 39.2905 28.0255 38.6616L28.0441 38.6336C28.2123 38.3214 28.3169 37.979 28.3519 37.6261C28.387 37.2733 28.3517 36.917 28.2481 36.5779C28.1446 36.2387 27.9748 35.9234 27.7487 35.6502C27.5225 35.3769 27.2444 35.1511 26.9305 34.9859V34.9884ZM34.665 1.80818C33.9659 1.63373 33.2262 1.74166 32.6062 2.10856C32.3007 2.28902 32.034 2.52809 31.8213 2.812C31.6087 3.0959 31.4544 3.41904 31.3672 3.76279L25.2443 27.8985C25.1432 28.2952 25.1349 28.7099 25.2201 29.1104C25.3053 29.5108 25.4817 29.8863 25.7355 30.2076C26.0505 30.6047 26.4699 30.9064 26.9468 31.0787C27.4236 31.2511 27.9391 31.2873 28.4355 31.1834C28.9318 31.0794 29.3893 30.8395 29.7568 30.4903C30.1243 30.1412 30.3873 29.6967 30.5161 29.2066L36.639 5.07095C36.7271 4.72824 36.7458 4.3714 36.694 4.02137C36.6423 3.67135 36.5211 3.33517 36.3376 3.03256C35.9643 2.41886 35.3624 1.97844 34.6641 1.80818H34.665ZM11.0422 9.78656C9.18518 9.78222 7.35898 10.2611 5.74335 11.1759V3.45902C5.74224 3.10388 5.67098 2.75245 5.53365 2.42488C5.39632 2.09731 5.19562 1.80005 4.94306 1.55015C4.6905 1.30024 4.39106 1.10261 4.06189 0.968578C3.73273 0.834549 3.38032 0.766761 3.02488 0.769102C2.66969 0.766873 2.31756 0.834694 1.98865 0.968678C1.65974 1.10266 1.36052 1.30018 1.10814 1.5499C0.855768 1.79963 0.65519 2.09665 0.517904 2.42397C0.380619 2.75128 0.309324 3.10244 0.308105 3.45733V28.3342C0.309436 28.6891 0.380806 29.0402 0.518131 29.3675C0.655456 29.6947 0.856038 29.9917 1.10839 30.2414C1.36075 30.4911 1.65992 30.6887 1.98878 30.8227C2.31764 30.9567 2.66972 31.0246 3.02488 31.0225C3.38015 31.0247 3.73237 30.9569 4.06137 30.8229C4.39038 30.689 4.6897 30.4915 4.94221 30.2418C5.19473 29.9921 5.39546 29.6951 5.53293 29.3677C5.6704 29.0404 5.74191 28.6892 5.74335 28.3342V20.4058C5.74335 19.0014 6.30171 17.6545 7.29561 16.6615C8.2895 15.6684 9.63751 15.1106 11.0431 15.1106C12.4487 15.1106 13.7967 15.6684 14.7906 16.6615C15.7845 17.6545 16.3428 19.0014 16.3428 20.4058V28.3376C16.3554 29.0494 16.6472 29.7277 17.1554 30.2266C17.6636 30.7255 18.3476 31.005 19.06 31.005C19.7725 31.005 20.4564 30.7255 20.9646 30.2266C21.4728 29.7277 21.7647 29.0494 21.7772 28.3376V20.4058C21.7589 17.5765 20.6186 14.8699 18.6063 12.8792C16.5941 10.8884 13.874 9.77602 11.0422 9.78571V9.78656Z" fill="#FAFAFA"/>
</svg>
