<svg width="24" height="26" viewBox="0 0 24 26" fill="none" xmlns="http://www.w3.org/2000/svg">
<path d="M20.578 2.17798C20.3641 1.80311 20.0625 1.49284 19.7022 1.27708C19.3419 1.06132 18.9351 0.947351 18.521 0.946167H5.479C5.06493 0.947351 4.65814 1.06132 4.29784 1.27708C3.93755 1.49284 3.63591 1.80311 3.422 2.17798L0.172 7.90565C0.0593664 8.1028 -0.000113796 8.32877 1.63445e-07 8.55909C0.00469547 9.78393 0.431302 10.965 1.2 11.8813V22.5161C1.2 23.1892 1.45286 23.8346 1.90294 24.3105C2.35303 24.7864 2.96348 25.0538 3.6 25.0538H20.4C21.0365 25.0538 21.647 24.7864 22.0971 24.3105C22.5471 23.8346 22.8 23.1892 22.8 22.5161V11.8813C23.5687 10.965 23.9953 9.78393 24 8.55909C24.0001 8.32877 23.9406 8.1028 23.828 7.90565L20.578 2.17798ZM21.578 8.87736C21.4963 9.51281 21.19 10.092 20.7208 10.4984C20.2516 10.9048 19.6543 11.1083 19.049 11.068C18.4437 11.0277 17.8752 10.7465 17.458 10.2811C17.0408 9.8156 16.8057 9.20037 16.8 8.55909C16.7929 8.47644 16.7771 8.39488 16.753 8.3159H16.777L15.864 3.48381H18.521L21.581 8.8763L21.578 8.87736ZM10.578 3.48487H13.411L14.387 8.64263C14.3651 9.29777 14.1035 9.91833 13.6574 10.3736C13.2113 10.8289 12.6155 11.0833 11.9955 11.0833C11.3755 11.0833 10.7797 10.8289 10.3336 10.3736C9.88752 9.91833 9.62595 9.29777 9.604 8.64263L10.578 3.48487ZM5.478 3.48487H8.136L7.224 8.31062H7.248C7.22263 8.39111 7.20651 8.47453 7.2 8.55909C7.19965 9.20436 6.96683 9.82524 6.54891 10.2954C6.13099 10.7657 5.55936 11.0499 4.9503 11.0903C4.34124 11.1307 3.74049 10.9243 3.27026 10.513C2.80003 10.1017 2.49564 9.51645 2.419 8.8763L5.478 3.48487ZM9.6 22.5161V18.7097H14.4V22.5161H9.6ZM16.8 22.5161V18.7097C16.8 18.3764 16.7379 18.0464 16.6173 17.7386C16.4967 17.4307 16.3199 17.1509 16.0971 16.9153C15.8742 16.6796 15.6096 16.4927 15.3184 16.3652C15.0273 16.2377 14.7152 16.172 14.4 16.172H9.6C9.28483 16.172 8.97274 16.2377 8.68156 16.3652C8.39038 16.4927 8.1258 16.6796 7.90294 16.9153C7.68008 17.1509 7.5033 17.4307 7.38269 17.7386C7.26208 18.0464 7.2 18.3764 7.2 18.7097V22.5161H3.6V13.4546C3.99113 13.5683 4.39439 13.6287 4.8 13.6344C5.48135 13.6348 6.15494 13.4815 6.77575 13.1846C7.39657 12.8878 7.95032 12.4543 8.4 11.913C8.84991 12.454 9.4037 12.8873 10.0245 13.1842C10.6452 13.481 11.3187 13.6346 12 13.6346C12.6813 13.6346 13.3548 13.481 13.9755 13.1842C14.5963 12.8873 15.1501 12.454 15.6 11.913C16.1791 12.6254 16.938 13.1487 17.788 13.4217C18.6381 13.6947 19.544 13.7061 20.4 13.4546V22.5161H16.8Z" fill="black"/>
</svg>
